<?xml version="1.0" encoding="utf-8"?>
<!-- Generator: Adobe Illustrator 16.0.0, SVG Export Plug-In . SVG Version: 6.00 Build 0)  -->
<!DOCTYPE svg PUBLIC "-//W3C//DTD SVG 1.1//EN" "http://www.w3.org/Graphics/SVG/1.1/DTD/svg11.dtd">
<svg version="1.1" id="레이어_1" xmlns="http://www.w3.org/2000/svg" xmlns:xlink="http://www.w3.org/1999/xlink" x="0px"
	 y="0px" width="338.475px" height="69.687px" viewBox="0 0 338.475 69.687" enable-background="new 0 0 338.475 69.687"
	 xml:space="preserve">
<g>
	<path fill="#ED1C29" d="M-416.527-146.182v-6.46c15.735-1.889,27.47-8.825,27.47-17.137c0-9.8-16.078-17.625-35.859-17.625
		c-19.722,0-35.788,7.825-35.788,17.625c0,8.142,11.283,14.979,26.537,16.991v6.607l-26.855-0.098c0,0-4.026,0-4.152,3.73
		c0,0-0.356,4.12,3.962,4.12h1.638h72.961v-7.729L-416.527-146.182z M-443.476-169.756c0-5.528,8.02-9.916,17.894-9.916
		s17.92,4.388,17.92,9.916c0,5.521-8.046,9.959-17.92,9.959S-443.476-164.234-443.476-169.756"/>
	<path fill="#ED1C29" d="M-331.623-159.273h-28.072v12.993h33.451l-0.025,7.85h-40.437c-9.67-0.305-8.954-9.775-8.954-9.775v-19.033
		h27.675v-9.587h-24.842h0.369c-4.356,0-3.995-4.095-3.995-4.095c0.127-3.803,4.159-3.743,4.159-3.743h34.874
		c0,0,5.88,0.183,5.671,4.937L-331.623-159.273z"/>
	<path fill="#ED1C29" d="M-219.735-153.215v-7.375h-29.343v-2.023c15.004-1.329,26.167-6.083,26.167-11.799
		c0-6.722-15.589-12.183-34.766-12.183c-19.216,0-34.74,5.46-34.74,12.183c0,5.552,10.636,10.264,25.17,11.665v2.207l-26.371-0.049
		c0,0-3.734-0.17-4.177,3.315c0,0-0.345,4.06,3.98,4.06h1.651h3.168v8.032c0,0-0.857,6.753,9.95,6.753h53.822v-7.472h-47.466v-7.313
		H-219.735z M-274.46-174.412c0-2.632,7.524-4.826,16.783-4.826c9.258,0,16.771,2.194,16.771,4.826
		c0,2.688-7.513,4.796-16.771,4.796C-266.936-169.616-274.46-171.724-274.46-174.412"/>
	<path fill="#ED1C29" d="M-314.947-185.321c0,0,8.985-1.273,8.985,7.521v39.37h-16.947v-39.907
		C-322.909-178.337-323.43-184.846-314.947-185.321"/>
	<path fill="#ED1C29" d="M-524.489-124.791c20.44,0,36.918-15.881,36.918-35.384c0-19.6-16.478-35.458-36.918-35.458
		c-20.339,0-36.868,15.857-36.868,35.458C-561.357-140.672-544.829-124.791-524.489-124.791"/>
	<polygon fill="#ED1C29" points="-478.573,-194.152 -482.008,-184.663 -492.645,-184.663 -484.015,-177.996 -487.158,-168.463 
		-477.977,-174.199 -468.82,-168.463 -472.37,-178.532 -463.822,-184.663 -474.313,-184.663 	"/>
	<path fill="#FFFFFF" d="M-510.691-191.52l-1.765,8.051c0,0-6.032,0.67-8.852,1.755l7.747,4.791l-1.327,7.051l7.6-5.394l8.58,3.974
		l-3.759-7.801l3.632-5.571c0,0-5.449,0.123-7.595,0.47L-510.691-191.52z"/>
	<path fill="#FFFFFF" d="M-531.786-143.379l-1.695,3.889c0,0-2.305,0.049-3.811-0.048l2.775,2.73l-1.46,3.791l4.318-2.328
		l4.312,2.218l-1.556-3.681l2.572-3.158c0,0-2.572,0.317-3.594,0.317L-531.786-143.379z"/>
	<path fill="#FFFFFF" d="M-534.389-184.297l-0.8,7.319c0,0-4.236,1.841-6.281,3.511l6.281,1.975l-0.68,6.362l6.083-5.588
		l7.239,2.334l-3.785-6.509l2.794-6.247c0,0-3.264,0.719-6.547,2.048L-534.389-184.297z"/>
	<path fill="#FFFFFF" d="M-552.766-172.62l1.486,6.21c0,0-2.388,2.176-3.677,4.017l5.086,0.098l1.054,5.119l3.391-5.631l6.452-0.341
		l-4.845-3.754l0.407-5.546c0,0-2.14,1.219-4.312,2.986L-552.766-172.62z"/>
	<path fill="#FFFFFF" d="M-550.976-151.789l-5.181,3.035c-1.226,5.046,1.314,8.826,1.314,8.826s-3.296-4.803-4.083-6.949
		c-0.737-2.156-2.172-6.24-1.778-7.154c1.778-3.876,4.287-6.558,4.287-6.558s-1.168,4.79-1.022,7.582L-550.976-151.789z"/>
	<path fill="#FFFFFF" d="M-539.368-139.539c0,0-2.102,1.28-4.451,1.597l0.235,5.607l-3.981-5.267c0,0-3.714,0.391-4.598-0.023
		l1.95-2.256c0,0-1.791-2.107-2.756-4.449c0,0,3.029,2.158,5.017,2.596l3.08-3.45l0.959,4.876c0,0,2.444,0.646,4.388,0.646"/>
</g>
<g>
	<g>
		<g>
			<g>
				<path fill="#ED1C29" d="M123.61,52.721c-6.785,0-12.279-7.901-12.279-17.65c0-9.747,5.494-17.65,12.279-17.65
					c6.781,0,12.277,7.903,12.277,17.65C135.888,44.819,130.392,52.721,123.61,52.721 M123.61,10.428
					c-16.029,0-29.023,11.035-29.023,24.643c0,13.61,12.994,24.645,29.023,24.645c16.028,0,29.022-11.034,29.022-24.645
					C152.633,21.463,139.639,10.428,123.61,10.428"/>
				<path fill="#ED1C29" d="M260.665,52.721c-6.782,0-12.279-7.901-12.279-17.65c0-9.747,5.497-17.65,12.279-17.65
					c6.781,0,12.277,7.903,12.277,17.65C272.942,44.819,267.446,52.721,260.665,52.721 M260.665,10.428
					c-16.029,0-29.024,11.035-29.024,24.643c0,13.61,12.995,24.645,29.024,24.645c16.028,0,29.026-11.034,29.026-24.645
					C289.691,21.463,276.693,10.428,260.665,10.428"/>
				<path fill="#ED1C29" d="M157.948,58.198V18.563c0,0-0.715-6.961,8.585-6.961h17.464c0,0,19.833-0.353,20.129,13.642
					c0,0,2.146,12.57-11.988,13.707l12.578,19.247h-18.204l-11.988-22.16c0,0-1.405-2.132,1.184-2.202h4.665
					c0,0,7.474,0.429,7.548-7.957c0,0,0.516-8.971-11.692-7.599c0,0-2.962,0.498-3.036,2.844v37.074H157.948z"/>
				<path fill="#ED1C29" d="M209.107,58.198h16.579V18.234c0,0,0.738-7.574-8.584-7.627c0,0-7.995,0-7.995,7.531V58.198z"/>
				<path fill="#ED1C29" d="M294.361,58.198h9.916V26.025l25.164,32.173h9.025V15.297c0,0,0.443-3.784-5.203-3.694
					c0,0-4.513-0.09-4.513,3.979v16.122l-14.632-18.037c0,0-2.637-2.724-9.642-2.724c0,0-9.599-0.049-10.116,8.049V58.198z"/>
				<path fill="#ED1C29" d="M4.426,51.518l-0.069-0.125L4.426,51.518 M57.944,16.255l3.707,7.714l-8.475-3.889l-7.463,5.216
					l1.313-6.919l-7.654-4.722c2.834-1.058,8.762-1.722,8.762-1.722l1.725-7.882l4.155,7.171c2.143-0.336,7.501-0.426,7.501-0.426
					L57.944,16.255z M34.444,20.313l3.74,6.486l-7.119-2.322l-5.965,5.496l0.645-6.227l-6.217-1.924
					c2.072-1.655,6.217-3.512,6.217-3.512l0.76-7.164l4.282,5.105c3.229-1.287,6.435-2.039,6.435-2.039L34.444,20.313z
					 M17.646,22.759l-0.398,5.499l4.768,3.646l-6.357,0.4l-3.314,5.502l-1.037-4.974l-5.018-0.179
					c1.279-1.76,3.642-3.926,3.642-3.926l-1.46-6.107l4.934,3.08C15.559,23.99,17.646,22.759,17.646,22.759 M13.177,53.046
					l3.033-3.432l0.96,4.82c0,0,2.358,0.611,4.283,0.622l0.214,0.124c0,0-2.139,1.259-4.42,1.591l0.209,5.506l-3.871-5.171
					c0,0-3.662,0.328-4.557-0.068l1.932-2.191c0,0-1.752-2.115-2.695-4.373C8.265,50.474,11.235,52.593,13.177,53.046
					 M26.399,57.832l-2.729-2.654c1.471,0.098,3.769,0.049,3.769,0.049l1.692-3.822l1.755,3.681
					c1.018,0.003,3.574-0.312,3.574-0.312l-2.537,3.059l1.563,3.716L29.2,59.291l-4.215,2.318L26.399,57.832z M72.606,34.846
					C72.606,15.602,56.353,0,36.304,0S0,15.602,0,34.846c0,2.212,0.239,4.361,0.647,6.463l-0.002-0.401
					c1.774-3.822,4.221-6.446,4.221-6.446S3.706,39.2,3.843,41.92l6.357,1.192l-5.115,2.983c-0.834,3.532,0.162,6.362,0.815,7.755
					c6.478,9.525,17.667,15.836,30.403,15.836C56.353,69.687,72.606,54.086,72.606,34.846"/>
			</g>
			<polygon fill="#ED1C29" points="81.458,1.424 78.096,10.794 67.595,10.794 76.115,17.34 72.981,26.709 82.012,21.053 
				91.043,26.709 87.539,16.807 95.97,10.794 85.652,10.794 			"/>
		</g>
	</g>
</g>
<g>
	<g>
		<path fill="#ED1C29" d="M-553.145,324.135v-4.255c10.361-1.243,18.088-5.81,18.088-11.284c0-6.452-10.587-11.604-23.612-11.604
			c-12.986,0-23.565,5.152-23.565,11.604c0,5.361,7.43,9.863,17.474,11.188v4.351l-17.683-0.064c0,0-2.651,0-2.733,2.456
			c0,0-0.235,2.713,2.609,2.713h1.078h48.042v-5.089L-553.145,324.135z M-570.889,308.612c0-3.641,5.281-6.529,11.783-6.529
			c6.501,0,11.799,2.889,11.799,6.529c0,3.635-5.298,6.557-11.799,6.557C-565.608,315.169-570.889,312.247-570.889,308.612"/>
		<path fill="#ED1C29" d="M-497.238,315.514h-18.484v8.557h22.026l-0.016,5.169h-26.626c-6.368-0.2-5.896-6.437-5.896-6.437V310.27
			h18.223v-6.313h-16.357h0.243c-2.869,0-2.631-2.695-2.631-2.695c0.084-2.505,2.739-2.465,2.739-2.465h22.963
			c0,0,3.872,0.121,3.734,3.25L-497.238,315.514z"/>
		<path fill="#ED1C29" d="M-423.563,319.504v-4.857h-19.321v-1.331c9.879-0.875,17.23-4.006,17.23-7.77
			c0-4.427-10.266-8.022-22.892-8.022c-12.653,0-22.876,3.596-22.876,8.022c0,3.657,7.004,6.759,16.574,7.681v1.453l-17.365-0.033
			c0,0-2.458-0.11-2.75,2.184c0,0-0.227,2.674,2.621,2.674h1.088h2.085v5.288c0,0-0.564,4.447,6.552,4.447h35.439v-4.921h-31.254
			v-4.814H-423.563z M-459.598,305.546c0-1.734,4.955-3.177,11.052-3.177c6.096,0,11.042,1.442,11.042,3.177
			c0,1.771-4.946,3.158-11.042,3.158C-454.643,308.704-459.598,307.316-459.598,305.546"/>
		<path fill="#ED1C29" d="M-486.258,298.362c0,0,5.917-0.839,5.917,4.952v25.925h-11.16v-26.278
			C-491.5,302.961-491.843,298.677-486.258,298.362"/>
	</g>
	<g>
		<path fill="#ED1C29" d="M-505.196,290.48c26.521,0,47.9-20.605,47.9-45.91c0-25.432-21.379-46.006-47.9-46.006
			c-26.39,0-47.836,20.574-47.836,46.006C-553.032,269.875-531.586,290.48-505.196,290.48"/>
		<polygon fill="#ED1C29" points="-445.621,200.485 -450.077,212.797 -463.878,212.797 -452.682,221.448 -456.76,233.817 
			-444.847,226.374 -432.966,233.817 -437.571,220.753 -426.481,212.797 -440.093,212.797 		"/>
		<path fill="#FFFFFF" d="M-487.294,203.901l-2.29,10.446c0,0-7.827,0.871-11.485,2.276l10.052,6.217l-1.722,9.149l9.86-7
			l11.132,5.158l-4.878-10.122l4.714-7.229c0,0-7.069,0.16-9.854,0.61L-487.294,203.901z"/>
		<path fill="#FFFFFF" d="M-514.663,266.363l-2.2,5.045c0,0-2.991,0.063-4.944-0.063l3.6,3.544l-1.894,4.918l5.603-3.02l5.594,2.877
			l-2.019-4.775l3.337-4.098c0,0-3.337,0.411-4.664,0.411L-514.663,266.363z"/>
		<path fill="#FFFFFF" d="M-518.041,213.272l-1.038,9.496c0,0-5.496,2.389-8.149,4.557l8.149,2.562l-0.882,8.254l7.893-7.251
			l9.393,3.029l-4.911-8.445l3.625-8.105c0,0-4.234,0.934-8.495,2.658L-518.041,213.272z"/>
		<path fill="#FFFFFF" d="M-541.886,228.424l1.929,8.057c0,0-3.098,2.822-4.771,5.211l6.599,0.127l1.368,6.643l4.399-7.307
			l8.371-0.442l-6.287-4.871l0.528-7.195c0,0-2.776,1.581-5.594,3.874L-541.886,228.424z"/>
		<path fill="#FFFFFF" d="M-539.563,255.451l-6.722,3.938c-1.591,6.546,1.706,11.45,1.706,11.45s-4.276-6.231-5.298-9.015
			c-0.956-2.798-2.818-8.097-2.308-9.283c2.308-5.03,5.562-8.51,5.562-8.51s-1.516,6.216-1.327,9.838L-539.563,255.451z"/>
		<path fill="#FFFFFF" d="M-524.501,271.345c0,0-2.728,1.661-5.776,2.074l0.305,7.273l-5.166-6.833c0,0-4.819,0.507-5.966-0.03
			l2.53-2.927c0,0-2.323-2.734-3.576-5.772c0,0,3.931,2.801,6.509,3.368l3.996-4.476l1.245,6.326c0,0,3.171,0.84,5.692,0.84"/>
	</g>
</g>
<g>
	<g>
		<path fill="#ED1C29" d="M-274.511,289.586c26.521,0,47.9-20.605,47.9-45.91c0-25.432-21.379-46.006-47.9-46.006
			c-26.39,0-47.836,20.574-47.836,46.006C-322.347,268.98-300.9,289.586-274.511,289.586"/>
		<polygon fill="#ED1C29" points="-214.935,199.591 -219.392,211.902 -233.192,211.902 -221.995,220.554 -226.073,232.923 
			-214.16,225.479 -202.279,232.923 -206.885,219.858 -195.796,211.902 -209.407,211.902 		"/>
		<path fill="#FFFFFF" d="M-256.608,203.007l-2.29,10.446c0,0-7.827,0.871-11.484,2.276l10.052,6.217l-1.722,9.149l9.86-7
			l11.133,5.158l-4.879-10.122l4.714-7.229c0,0-7.069,0.16-9.854,0.61L-256.608,203.007z"/>
		<path fill="#FFFFFF" d="M-283.978,265.469l-2.199,5.045c0,0-2.99,0.063-4.945-0.063l3.602,3.544l-1.895,4.918l5.603-3.02
			l5.594,2.877l-2.019-4.775l3.338-4.098c0,0-3.338,0.411-4.664,0.411L-283.978,265.469z"/>
		<path fill="#FFFFFF" d="M-287.355,212.378l-1.037,9.496c0,0-5.496,2.389-8.149,4.557l8.149,2.562l-0.884,8.254l7.895-7.251
			l9.392,3.029l-4.909-8.445l3.623-8.105c0,0-4.233,0.934-8.493,2.658L-287.355,212.378z"/>
		<path fill="#FFFFFF" d="M-311.2,227.529l1.93,8.057c0,0-3.099,2.822-4.771,5.211l6.599,0.127l1.368,6.643l4.399-7.307l8.37-0.442
			l-6.286-4.871l0.528-7.195c0,0-2.776,1.581-5.594,3.874L-311.2,227.529z"/>
		<path fill="#FFFFFF" d="M-308.876,254.557l-6.724,3.938c-1.589,6.546,1.707,11.45,1.707,11.45s-4.277-6.231-5.299-9.015
			c-0.955-2.798-2.818-8.097-2.308-9.283c2.308-5.03,5.563-8.51,5.563-8.51s-1.515,6.216-1.327,9.838L-308.876,254.557z"/>
		<path fill="#FFFFFF" d="M-293.815,270.45c0,0-2.727,1.661-5.775,2.074l0.306,7.273l-5.166-6.833c0,0-4.819,0.507-5.965-0.03
			l2.529-2.927c0,0-2.323-2.734-3.576-5.772c0,0,3.931,2.801,6.508,3.368l3.997-4.476l1.244,6.326c0,0,3.172,0.84,5.693,0.84"/>
	</g>
	<g>
		<path fill="#ED1C29" d="M-342.956,325.36c-4.629,0-8.378-5.391-8.378-12.043c0-6.651,3.749-12.044,8.378-12.044
			c4.628,0,8.379,5.393,8.379,12.044C-334.577,319.97-338.328,325.36-342.956,325.36 M-342.956,296.503
			c-10.937,0-19.803,7.528-19.803,16.814c0,9.287,8.866,16.815,19.803,16.815c10.938,0,19.805-7.528,19.805-16.815
			C-323.151,304.031-332.019,296.503-342.956,296.503"/>
		<path fill="#ED1C29" d="M-249.439,325.36c-4.628,0-8.379-5.391-8.379-12.043c0-6.651,3.751-12.044,8.379-12.044
			c4.627,0,8.377,5.393,8.377,12.044C-241.063,319.97-244.813,325.36-249.439,325.36 M-249.439,296.503
			c-10.938,0-19.803,7.528-19.803,16.814c0,9.287,8.864,16.815,19.803,16.815c10.937,0,19.806-7.528,19.806-16.815
			C-229.634,304.031-238.503,296.503-249.439,296.503"/>
		<path fill="#ED1C29" d="M-319.526,329.098v-27.044c0,0-0.487-4.75,5.858-4.75h11.916c0,0,13.532-0.24,13.734,9.308
			c0,0,1.464,8.578-8.179,9.354l8.581,13.133h-12.42l-8.181-15.12c0,0-0.958-1.455,0.807-1.503h3.184c0,0,5.1,0.293,5.15-5.43
			c0,0,0.353-6.12-7.979-5.184c0,0-2.02,0.339-2.07,1.939v25.297H-319.526z"/>
		<path fill="#ED1C29" d="M-284.618,329.098h11.312v-27.269c0,0,0.504-5.168-5.856-5.204c0,0-5.455,0-5.455,5.139V329.098z"/>
		<path fill="#ED1C29" d="M-226.447,329.098h6.766v-21.952l17.17,21.952h6.158v-29.272c0,0,0.304-2.582-3.55-2.521
			c0,0-3.08-0.061-3.08,2.715v11.001l-9.982-12.307c0,0-1.8-1.859-6.58-1.859c0,0-6.55-0.032-6.901,5.493V329.098z"/>
	</g>
</g>
</svg>
