<?xml version="1.0" encoding="utf-8"?>
<!-- Generator: Adobe Illustrator 16.0.0, SVG Export Plug-In . SVG Version: 6.00 Build 0)  -->
<!DOCTYPE svg PUBLIC "-//W3C//DTD SVG 1.1//EN" "http://www.w3.org/Graphics/SVG/1.1/DTD/svg11.dtd">
<svg version="1.1" id="레이어_1" xmlns="http://www.w3.org/2000/svg" xmlns:xlink="http://www.w3.org/1999/xlink" x="0px"
	 y="0px" width="338.475px" height="69.687px" viewBox="0 0 338.475 69.687" enable-background="new 0 0 338.475 69.687"
	 xml:space="preserve">
<g>
	<path fill="#ED1C29" d="M142.287,48.626V42.28c15.459-1.856,26.987-8.67,26.987-16.836c0-9.628-15.796-17.316-35.229-17.316
		c-19.376,0-35.159,7.688-35.159,17.316c0,7.999,11.085,14.716,26.071,16.692v6.491l-26.383-0.096c0,0-3.956,0-4.08,3.665
		c0,0-0.35,4.047,3.893,4.047h1.609h71.68v-7.593L142.287,48.626z M115.811,25.467c0-5.431,7.879-9.741,17.58-9.741
		c9.7,0,17.605,4.311,17.605,9.741c0,5.425-7.905,9.784-17.605,9.784C123.689,35.251,115.811,30.892,115.811,25.467"/>
	<path fill="#ED1C29" d="M225.7,35.766h-27.579v12.765h32.863l-0.024,7.711h-39.727c-9.5-0.299-8.797-9.604-8.797-9.604V27.94
		h27.188v-9.419H185.22h0.362c-4.279,0-3.925-4.023-3.925-4.023c0.125-3.737,4.086-3.677,4.086-3.677h34.262
		c0,0,5.776,0.18,5.571,4.851L225.7,35.766z"/>
	<path fill="#ED1C29" d="M335.623,41.717v-7.246h-28.827v-1.987c14.74-1.305,25.707-5.976,25.707-11.592
		c0-6.604-15.315-11.969-34.155-11.969c-18.878,0-34.13,5.364-34.13,11.969c0,5.455,10.449,10.083,24.728,11.46v2.168l-25.907-0.049
		c0,0-3.669-0.167-4.104,3.257c0,0-0.339,3.988,3.91,3.988h1.622h3.112v7.891c0,0-0.842,6.634,9.776,6.634h52.877v-7.34H283.6
		v-7.185H335.623z M281.859,20.893c0-2.586,7.393-4.742,16.488-4.742s16.477,2.155,16.477,4.742c0,2.641-7.381,4.712-16.477,4.712
		S281.859,23.533,281.859,20.893"/>
	<path fill="#ED1C29" d="M242.083,10.175c0,0,8.827-1.251,8.827,7.389v38.679h-16.649V17.037
		C234.261,17.037,233.75,10.642,242.083,10.175"/>
	<path fill="#ED1C29" d="M36.221,69.643c20.082,0,36.27-15.603,36.27-34.763c0-19.256-16.188-34.835-36.27-34.835
		C16.239,0.044,0,15.623,0,34.879C0,54.04,16.239,69.643,36.221,69.643"/>
	<polygon fill="#ED1C29" points="81.33,1.499 77.956,10.821 67.506,10.821 75.983,17.372 72.896,26.737 81.917,21.102 
		90.912,26.737 87.426,16.845 95.822,10.821 85.517,10.821 	"/>
	<path fill="#FFFFFF" d="M49.776,4.085l-1.734,7.91c0,0-5.926,0.659-8.696,1.724l7.611,4.707l-1.305,6.927l7.468-5.299l8.428,3.904
		l-3.692-7.664l3.568-5.473c0,0-5.353,0.121-7.461,0.461L49.776,4.085z"/>
	<path fill="#FFFFFF" d="M29.053,51.381l-1.665,3.82c0,0-2.266,0.048-3.744-0.048l2.726,2.683l-1.434,3.724l4.242-2.287l4.234,2.179
		l-1.527-3.615l2.526-3.103c0,0-2.526,0.311-3.531,0.311L29.053,51.381z"/>
	<path fill="#FFFFFF" d="M26.495,11.181l-0.787,7.191c0,0-4.16,1.809-6.17,3.449l6.17,1.94l-0.667,6.25l5.977-5.49l7.111,2.293
		l-3.718-6.395l2.745-6.137c0,0-3.206,0.707-6.432,2.012L26.495,11.181z"/>
	<path fill="#FFFFFF" d="M8.441,22.653l1.46,6.101c0,0-2.347,2.138-3.613,3.946l4.996,0.096l1.036,5.029l3.332-5.533l6.338-0.335
		l-4.759-3.688l0.398-5.449c0,0-2.103,1.197-4.236,2.934L8.441,22.653z"/>
	<path fill="#FFFFFF" d="M10.199,43.118L5.109,46.1c-1.205,4.958,1.292,8.67,1.292,8.67s-3.239-4.718-4.013-6.827
		c-0.723-2.118-2.134-6.13-1.746-7.028c1.746-3.809,4.211-6.443,4.211-6.443S3.705,39.178,3.85,41.92L10.199,43.118z"/>
	<path fill="#FFFFFF" d="M21.604,55.153c0,0-2.066,1.257-4.373,1.569l0.229,5.508l-3.911-5.174c0,0-3.648,0.384-4.517-0.023
		l1.916-2.216c0,0-1.76-2.07-2.708-4.371c0,0,2.977,2.12,4.928,2.55l3.026-3.389l0.941,4.791c0,0,2.401,0.635,4.311,0.635"/>
</g>
<g>
	<g>
		<path fill="#ED1C29" d="M-553.145,324.135v-4.255c10.361-1.243,18.088-5.81,18.088-11.284c0-6.452-10.587-11.604-23.612-11.604
			c-12.986,0-23.565,5.152-23.565,11.604c0,5.361,7.43,9.863,17.474,11.188v4.351l-17.683-0.064c0,0-2.651,0-2.733,2.456
			c0,0-0.235,2.713,2.609,2.713h1.078h48.042v-5.089L-553.145,324.135z M-570.889,308.612c0-3.641,5.281-6.529,11.783-6.529
			c6.501,0,11.799,2.889,11.799,6.529c0,3.635-5.298,6.557-11.799,6.557C-565.608,315.169-570.889,312.247-570.889,308.612"/>
		<path fill="#ED1C29" d="M-497.238,315.514h-18.484v8.557h22.026l-0.016,5.169h-26.626c-6.368-0.2-5.896-6.437-5.896-6.437V310.27
			h18.223v-6.313h-16.357h0.243c-2.869,0-2.631-2.695-2.631-2.695c0.084-2.505,2.739-2.465,2.739-2.465h22.963
			c0,0,3.872,0.121,3.734,3.25L-497.238,315.514z"/>
		<path fill="#ED1C29" d="M-423.563,319.504v-4.857h-19.321v-1.331c9.879-0.875,17.23-4.006,17.23-7.77
			c0-4.427-10.266-8.022-22.892-8.022c-12.653,0-22.876,3.596-22.876,8.022c0,3.657,7.004,6.759,16.574,7.681v1.453l-17.365-0.033
			c0,0-2.458-0.11-2.75,2.184c0,0-0.227,2.674,2.621,2.674h1.088h2.085v5.288c0,0-0.564,4.447,6.552,4.447h35.439v-4.921h-31.254
			v-4.814H-423.563z M-459.598,305.546c0-1.734,4.955-3.177,11.052-3.177c6.096,0,11.042,1.442,11.042,3.177
			c0,1.771-4.946,3.158-11.042,3.158C-454.643,308.704-459.598,307.316-459.598,305.546"/>
		<path fill="#ED1C29" d="M-486.258,298.362c0,0,5.917-0.839,5.917,4.952v25.925h-11.16v-26.278
			C-491.5,302.961-491.843,298.677-486.258,298.362"/>
	</g>
	<g>
		<path fill="#ED1C29" d="M-505.196,290.48c26.521,0,47.9-20.605,47.9-45.91c0-25.432-21.379-46.006-47.9-46.006
			c-26.39,0-47.836,20.574-47.836,46.006C-553.032,269.875-531.586,290.48-505.196,290.48"/>
		<polygon fill="#ED1C29" points="-445.621,200.485 -450.077,212.797 -463.878,212.797 -452.682,221.448 -456.76,233.817 
			-444.847,226.374 -432.966,233.817 -437.571,220.753 -426.481,212.797 -440.093,212.797 		"/>
		<path fill="#FFFFFF" d="M-487.294,203.901l-2.29,10.446c0,0-7.827,0.871-11.485,2.276l10.052,6.217l-1.722,9.149l9.86-7
			l11.132,5.158l-4.878-10.122l4.714-7.229c0,0-7.069,0.16-9.854,0.61L-487.294,203.901z"/>
		<path fill="#FFFFFF" d="M-514.663,266.363l-2.2,5.045c0,0-2.991,0.063-4.944-0.063l3.6,3.544l-1.894,4.918l5.603-3.02l5.594,2.877
			l-2.019-4.775l3.337-4.098c0,0-3.337,0.411-4.664,0.411L-514.663,266.363z"/>
		<path fill="#FFFFFF" d="M-518.041,213.272l-1.038,9.496c0,0-5.496,2.389-8.149,4.557l8.149,2.562l-0.882,8.254l7.893-7.251
			l9.393,3.029l-4.911-8.445l3.625-8.105c0,0-4.234,0.934-8.495,2.658L-518.041,213.272z"/>
		<path fill="#FFFFFF" d="M-541.886,228.424l1.929,8.057c0,0-3.098,2.822-4.771,5.211l6.599,0.127l1.368,6.643l4.399-7.307
			l8.371-0.442l-6.287-4.871l0.528-7.195c0,0-2.776,1.581-5.594,3.874L-541.886,228.424z"/>
		<path fill="#FFFFFF" d="M-539.563,255.451l-6.722,3.938c-1.591,6.546,1.706,11.45,1.706,11.45s-4.276-6.231-5.298-9.015
			c-0.956-2.798-2.818-8.097-2.308-9.283c2.308-5.03,5.562-8.51,5.562-8.51s-1.516,6.216-1.327,9.838L-539.563,255.451z"/>
		<path fill="#FFFFFF" d="M-524.501,271.345c0,0-2.728,1.661-5.776,2.074l0.305,7.273l-5.166-6.833c0,0-4.819,0.507-5.966-0.03
			l2.53-2.927c0,0-2.323-2.734-3.576-5.772c0,0,3.931,2.801,6.509,3.368l3.996-4.476l1.245,6.326c0,0,3.171,0.84,5.692,0.84"/>
	</g>
</g>
<g>
	<g>
		<path fill="#ED1C29" d="M-274.511,289.586c26.521,0,47.9-20.605,47.9-45.91c0-25.432-21.379-46.006-47.9-46.006
			c-26.39,0-47.836,20.574-47.836,46.006C-322.347,268.98-300.9,289.586-274.511,289.586"/>
		<polygon fill="#ED1C29" points="-214.935,199.591 -219.392,211.902 -233.192,211.902 -221.995,220.554 -226.073,232.923 
			-214.16,225.479 -202.279,232.923 -206.885,219.858 -195.796,211.902 -209.407,211.902 		"/>
		<path fill="#FFFFFF" d="M-256.608,203.007l-2.29,10.446c0,0-7.827,0.871-11.484,2.276l10.052,6.217l-1.722,9.149l9.86-7
			l11.133,5.158l-4.879-10.122l4.714-7.229c0,0-7.069,0.16-9.854,0.61L-256.608,203.007z"/>
		<path fill="#FFFFFF" d="M-283.978,265.469l-2.199,5.045c0,0-2.99,0.063-4.945-0.063l3.602,3.544l-1.895,4.918l5.603-3.02
			l5.594,2.877l-2.019-4.775l3.338-4.098c0,0-3.338,0.411-4.664,0.411L-283.978,265.469z"/>
		<path fill="#FFFFFF" d="M-287.355,212.378l-1.037,9.496c0,0-5.496,2.389-8.149,4.557l8.149,2.562l-0.884,8.254l7.895-7.251
			l9.392,3.029l-4.909-8.445l3.623-8.105c0,0-4.233,0.934-8.493,2.658L-287.355,212.378z"/>
		<path fill="#FFFFFF" d="M-311.2,227.529l1.93,8.057c0,0-3.099,2.822-4.771,5.211l6.599,0.127l1.368,6.643l4.399-7.307l8.37-0.442
			l-6.286-4.871l0.528-7.195c0,0-2.776,1.581-5.594,3.874L-311.2,227.529z"/>
		<path fill="#FFFFFF" d="M-308.876,254.557l-6.724,3.938c-1.589,6.546,1.707,11.45,1.707,11.45s-4.277-6.231-5.299-9.015
			c-0.955-2.798-2.818-8.097-2.308-9.283c2.308-5.03,5.563-8.51,5.563-8.51s-1.515,6.216-1.327,9.838L-308.876,254.557z"/>
		<path fill="#FFFFFF" d="M-293.815,270.45c0,0-2.727,1.661-5.775,2.074l0.306,7.273l-5.166-6.833c0,0-4.819,0.507-5.965-0.03
			l2.529-2.927c0,0-2.323-2.734-3.576-5.772c0,0,3.931,2.801,6.508,3.368l3.997-4.476l1.244,6.326c0,0,3.172,0.84,5.693,0.84"/>
	</g>
	<g>
		<path fill="#ED1C29" d="M-342.956,325.36c-4.629,0-8.378-5.391-8.378-12.043c0-6.651,3.749-12.044,8.378-12.044
			c4.628,0,8.379,5.393,8.379,12.044C-334.577,319.97-338.328,325.36-342.956,325.36 M-342.956,296.503
			c-10.937,0-19.803,7.528-19.803,16.814c0,9.287,8.866,16.815,19.803,16.815c10.938,0,19.805-7.528,19.805-16.815
			C-323.151,304.031-332.019,296.503-342.956,296.503"/>
		<path fill="#ED1C29" d="M-249.439,325.36c-4.628,0-8.379-5.391-8.379-12.043c0-6.651,3.751-12.044,8.379-12.044
			c4.627,0,8.377,5.393,8.377,12.044C-241.063,319.97-244.813,325.36-249.439,325.36 M-249.439,296.503
			c-10.938,0-19.803,7.528-19.803,16.814c0,9.287,8.864,16.815,19.803,16.815c10.937,0,19.806-7.528,19.806-16.815
			C-229.634,304.031-238.503,296.503-249.439,296.503"/>
		<path fill="#ED1C29" d="M-319.526,329.098v-27.044c0,0-0.487-4.75,5.858-4.75h11.916c0,0,13.532-0.24,13.734,9.308
			c0,0,1.464,8.578-8.179,9.354l8.581,13.133h-12.42l-8.181-15.12c0,0-0.958-1.455,0.807-1.503h3.184c0,0,5.1,0.293,5.15-5.43
			c0,0,0.353-6.12-7.979-5.184c0,0-2.02,0.339-2.07,1.939v25.297H-319.526z"/>
		<path fill="#ED1C29" d="M-284.618,329.098h11.312v-27.269c0,0,0.504-5.168-5.856-5.204c0,0-5.455,0-5.455,5.139V329.098z"/>
		<path fill="#ED1C29" d="M-226.447,329.098h6.766v-21.952l17.17,21.952h6.158v-29.272c0,0,0.304-2.582-3.55-2.521
			c0,0-3.08-0.061-3.08,2.715v11.001l-9.982-12.307c0,0-1.8-1.859-6.58-1.859c0,0-6.55-0.032-6.901,5.493V329.098z"/>
	</g>
</g>
</svg>
